<?xml version="1.0" standalone="no"?>
<!DOCTYPE svg PUBLIC "-//W3C//DTD SVG 20010904//EN"
 "http://www.w3.org/TR/2001/REC-SVG-20010904/DTD/svg10.dtd">
<svg version="1.0" xmlns="http://www.w3.org/2000/svg"
 width="260.000000pt" height="260.000000pt" viewBox="0 0 260.000000 260.000000"
 preserveAspectRatio="xMidYMid meet">
<metadata>
Created by potrace 1.14, written by Peter Selinger 2001-2017
</metadata>
<g transform="translate(0.000000,260.000000) scale(0.100000,-0.100000)"
fill="#000000" stroke="none">
<path d="M1132 2590 c-549 -78 -984 -480 -1103 -1020 -31 -138 -33 -389 -5
-520 55 -253 163 -462 333 -641 188 -197 409 -322 673 -380 138 -31 389 -33
520 -5 253 55 462 163 641 333 197 188 322 409 380 673 31 138 33 389 5 520
-55 253 -163 462 -333 641 -184 193 -399 317 -653 375 -118 28 -348 40 -458
24z m558 -510 c3 -4 31 -9 63 -12 33 -3 62 -10 66 -16 3 -6 19 -14 34 -17 15
-4 27 -11 27 -15 0 -5 14 -11 30 -15 17 -4 30 -13 30 -21 0 -8 7 -14 15 -14 8
0 15 -7 15 -15 0 -8 7 -15 15 -15 8 0 15 -7 15 -15 0 -8 7 -15 15 -15 8 0 15
-7 15 -15 0 -8 7 -15 15 -15 8 0 15 -7 15 -15 0 -8 6 -15 14 -15 8 0 17 -13
21 -29 3 -16 13 -32 21 -35 8 -3 14 -18 14 -35 0 -16 6 -32 13 -34 19 -8 -12
-27 -44 -27 -15 0 -29 -7 -33 -15 -4 -11 -21 -15 -66 -15 -47 0 -60 -3 -60
-15 0 -11 -12 -15 -45 -15 -33 0 -45 -4 -45 -15 0 -10 -11 -15 -35 -15 -23 0
-35 -5 -35 -14 0 -8 -16 -15 -41 -19 -23 -3 -45 -10 -48 -15 -3 -6 -19 -14
-34 -17 -15 -4 -27 -11 -27 -16 0 -5 -8 -13 -17 -16 -10 -4 -24 -13 -32 -20
-7 -8 -21 -13 -30 -11 -23 5 -30 158 -6 158 8 0 15 7 15 15 0 10 11 15 35 15
24 0 35 5 35 15 0 8 7 15 15 15 8 0 15 6 15 14 0 8 7 16 15 20 8 3 15 17 15
31 0 16 6 25 15 25 12 0 15 14 15 65 0 51 -3 65 -15 65 -8 0 -15 7 -15 15 0 8
-7 15 -15 15 -8 0 -15 7 -15 15 0 12 -14 15 -65 15 l-65 0 0 46 c0 37 4 47 20
51 11 3 20 9 20 14 0 17 107 17 120 -1z m-250 -125 c0 -87 3 -105 15 -105 12
0 15 -19 15 -110 0 -91 -3 -110 -15 -110 -8 0 -15 -7 -15 -15 0 -10 -10 -15
-30 -15 -20 0 -30 -5 -30 -15 0 -8 -7 -15 -15 -15 -8 0 -15 -9 -15 -19 0 -11
-6 -26 -14 -33 -7 -8 -17 -29 -21 -46 -3 -18 -11 -32 -16 -32 -5 0 -9 -13 -9
-30 0 -23 -4 -30 -20 -30 -11 0 -20 7 -20 15 0 8 -7 15 -15 15 -10 0 -15 10
-15 30 0 20 -5 30 -15 30 -11 0 -15 12 -15 45 0 33 -4 45 -15 45 -12 0 -15 19
-15 115 0 96 3 115 15 115 11 0 15 12 15 45 0 33 4 45 15 45 8 0 15 7 15 15 0
8 6 15 14 15 8 0 17 13 21 29 4 20 14 31 31 35 13 4 24 11 24 16 0 6 7 10 15
10 9 0 18 6 21 14 3 8 19 18 35 21 16 4 29 11 29 16 0 5 7 9 15 9 12 0 15 -18
15 -105z m190 -60 c0 -8 7 -15 15 -15 10 0 15 -10 15 -30 0 -20 -5 -30 -15
-30 -8 0 -15 -7 -15 -15 0 -10 -11 -15 -35 -15 -24 0 -35 5 -35 15 0 8 -7 15
-15 15 -10 0 -15 10 -15 30 0 20 5 30 15 30 8 0 15 7 15 15 0 10 11 15 35 15
24 0 35 -5 35 -15z m560 -450 c0 -131 -2 -155 -15 -155 -11 0 -15 -12 -15 -49
0 -29 -6 -55 -14 -63 -7 -8 -17 -29 -21 -46 -3 -18 -10 -32 -15 -32 -5 0 -11
-13 -15 -29 -3 -16 -13 -32 -21 -35 -8 -3 -14 -12 -14 -21 0 -8 -7 -15 -15
-15 -8 0 -15 -5 -15 -11 0 -6 -7 -17 -15 -25 -8 -9 -15 -24 -15 -35 0 -10 -7
-19 -15 -19 -8 0 -15 -7 -15 -15 0 -8 -7 -15 -15 -15 -8 0 -15 -7 -15 -15 0
-8 -7 -15 -15 -15 -8 0 -15 -7 -15 -15 0 -8 -7 -15 -15 -15 -8 0 -15 -7 -15
-15 0 -8 -7 -15 -15 -15 -8 0 -15 -6 -15 -13 0 -7 -9 -20 -20 -30 -11 -9 -20
-24 -20 -32 0 -8 -5 -15 -10 -15 -6 0 -14 -8 -17 -17 -4 -10 -13 -24 -20 -31
-7 -7 -13 -29 -13 -48 l0 -34 49 0 c31 0 55 -6 65 -15 9 -9 33 -15 60 -15 34
0 46 -4 46 -15 0 -8 7 -15 15 -15 24 0 18 -27 -7 -34 -30 -8 -437 -8 -477 0
-31 7 -44 34 -16 34 8 0 15 7 15 15 0 8 7 15 16 15 8 0 22 7 30 15 9 8 24 15
35 15 16 0 19 7 19 45 l0 45 -50 0 c-38 0 -50 -4 -50 -15 0 -12 -13 -15 -60
-15 -47 0 -60 -3 -60 -15 0 -12 -17 -15 -95 -15 -78 0 -95 -3 -95 -15 0 -13
-57 -15 -450 -15 -393 0 -450 2 -450 15 0 8 7 15 15 15 8 0 15 7 15 15 0 8 7
15 15 15 8 0 15 9 15 20 0 11 6 20 14 20 8 0 16 4 18 10 2 5 38 13 80 16 43 4
78 10 78 14 0 4 46 10 102 14 57 4 105 12 109 17 3 6 34 13 68 16 42 4 61 10
61 19 0 10 14 14 45 14 33 0 45 4 45 15 0 10 11 15 35 15 24 0 35 5 35 15 0
11 11 15 40 15 29 0 40 4 40 15 0 8 9 15 20 15 11 0 20 7 20 15 0 10 10 15 30
15 20 0 30 5 30 15 0 8 7 15 15 15 9 0 18 7 21 15 4 8 12 15 19 15 17 0 105
88 105 105 0 7 7 15 15 19 8 3 15 12 15 21 0 8 7 15 15 15 10 0 15 10 15 30 0
20 5 30 15 30 10 0 15 10 15 30 0 19 5 30 14 30 9 0 15 16 19 47 3 26 10 49
16 51 6 2 11 10 11 18 0 8 7 14 15 14 8 0 15 7 15 15 0 8 9 15 19 15 11 0 26
7 35 15 8 8 22 15 30 15 9 0 16 6 16 14 0 8 16 15 41 19 23 3 45 10 48 15 3 6
20 14 36 18 17 4 33 11 36 17 4 5 28 12 55 15 27 2 53 11 57 18 5 9 28 14 67
14 47 0 60 3 60 15 0 12 14 15 65 15 l65 0 0 -155z"/>
<path d="M2030 1425 c0 -12 -14 -15 -65 -15 -51 0 -65 -3 -65 -15 0 -11 -12
-15 -45 -15 -44 0 -45 -1 -45 -31 0 -17 -7 -37 -15 -45 -8 -9 -15 -28 -15 -44
0 -16 -7 -30 -15 -34 -9 -3 -15 -18 -15 -36 0 -20 -5 -30 -15 -30 -8 0 -15 -7
-15 -15 0 -8 -7 -15 -15 -15 -8 0 -15 -7 -15 -15 0 -9 -7 -18 -15 -21 -8 -4
-15 -12 -15 -19 0 -17 -88 -105 -105 -105 -7 0 -15 -7 -19 -15 -3 -8 -12 -15
-21 -15 -8 0 -15 -7 -15 -15 0 -8 -7 -15 -15 -15 -8 0 -15 -7 -15 -15 0 -10
-10 -15 -30 -15 -20 0 -30 -5 -30 -15 0 -10 -10 -15 -29 -15 -24 0 -31 -5 -36
-29 -3 -16 -13 -32 -21 -35 -8 -3 -14 -12 -14 -21 0 -8 -4 -15 -10 -15 -5 0
-10 -4 -10 -10 0 -5 20 -10 45 -10 25 0 45 4 45 9 0 5 27 12 60 16 41 5 60 11
60 21 0 10 13 14 45 14 33 0 45 4 45 15 0 10 10 15 30 15 20 0 30 5 30 15 0
10 11 15 35 15 24 0 35 5 35 15 0 8 7 15 15 15 8 0 15 7 15 15 0 8 9 15 19 15
11 0 26 7 35 15 8 8 19 15 25 15 6 0 11 7 11 15 0 8 7 15 16 15 9 0 18 9 21
20 3 11 12 20 19 20 8 0 14 7 14 15 0 8 7 15 15 15 10 0 15 10 15 30 0 20 5
30 15 30 8 0 15 7 15 15 0 8 7 15 15 15 10 0 15 10 15 30 0 18 6 33 15 36 10
4 15 20 15 49 0 25 6 50 15 59 10 10 15 35 15 75 0 48 -3 61 -15 61 -8 0 -15
-7 -15 -15z"/>
</g>
</svg>
